<svg xmlns="http://www.w3.org/2000/svg" viewBox="0 0 64 64" width="128" height="128">
<style>
    .primary-fill { fill: #EAB308; }
    .outline { fill: none; stroke: #EAB308; stroke-width: 1.5; stroke-linecap: round; stroke-linejoin: round; }
  </style>
  <g fill="#FFD700">
    <circle cx="32" cy="32" r="6"/>
    <path d="M32 14a2 2 0 0 1 2 2v4a2 2 0 0 1-4 0v-4a2 2 0 0 1 2-2zM32 44a2 2 0 0 1 2 2v4a2 2 0 0 1-4 0v-4a2 2 0 0 1 2-2zM14 32a2 2 0 0 1 2-2h4a2 2 0 0 1 0 4h-4a2 2 0 0 1-2-2zM44 32a2 2 0 0 1 2-2h4a2 2 0 0 1 0 4h-4a2 2 0 0 1-2-2z"/>
    <path d="M22.93 22.93a2 2 0 0 1 2.83 0l2.83 2.83a2 2 0 0 1-2.83 2.83l-2.83-2.83a2 2 0 0 1 0-2.83zM41.07 41.07a2 2 0 0 1 2.83 0l2.83 2.83a2 2 0 0 1-2.83 2.83l-2.83-2.83a2 2 0 0 1 0-2.83zM22.93 41.07a2 2 0 0 1 0 2.83l-2.83 2.83a2 2 0 0 1-2.83-2.83l2.83-2.83a2 2 0 0 1 2.83 0zM41.07 22.93a2 2 0 0 1 0 2.83l-2.83 2.83a2 2 0 0 1-2.83-2.83l2.83-2.83a2 2 0 0 1 2.83 0z"/>
  </g>
</svg> 
