<svg xmlns="http://www.w3.org/2000/svg" viewBox="0 0 24 24">
  <style>
    .primary-fill { fill: #EAB308; }
    .outline { fill: none; stroke: #2B2B2B; stroke-width: 1.5; stroke-linecap: round; stroke-linejoin: round; }
  </style>
  <g>
    <path class="primary-fill" d="M4 4h16a2 2 0 012 2v12a2 2 0 01-2 2H4a2 2 0 01-2-2V6a2 2 0 012-2z"/>
    <path class="outline" d="M4 4h16a2 2 0 012 2v12a2 2 0 01-2 2H4a2 2 0 01-2-2V6a2 2 0 012-2z"/>
    <path class="outline" d="M16 2v4"/>
    <path class="outline" d="M8 2v4"/>
    <path class="outline" d="M2 10h20"/>
    <rect class="primary-fill" x="6" y="14" width="4" height="4"/>
    <rect class="outline" x="6" y="14" width="4" height="4"/>
  </g>
</svg> 